<svg width="96" height="96" viewBox="0 0 96 96" fill="none" xmlns="http://www.w3.org/2000/svg">
<g clip-path="url(#clip0_225_14)">
<path d="M88 16H80C77.8 16 76 17.8 76 20V56C76 58.2 77.8 60 80 60H88V16ZM8.68 44.48C8.24 45.48 8 46.56 8 47.68V52C8 56.4 11.6 60 16 60H38L34.32 78.6C34.12 79.48 34.24 80.44 34.64 81.24C35.56 83.04 36.72 84.68 38.16 86.12L40 88L65.64 62.36C67.16 60.84 68 58.8 68 56.68V25.36C68 20.2 63.8 16 58.64 16H26.24C23.4 16 20.8 17.48 19.36 19.88L8.68 44.48Z" fill="black"/>
</g>
<defs>
<clipPath id="clip0_225_14">
<rect width="96" height="96" fill="white"/>
</clipPath>
</defs>
</svg>
