<svg width="96" height="96" viewBox="0 0 96 96" fill="none" xmlns="http://www.w3.org/2000/svg">
<g clip-path="url(#clip0_225_2)">
<path d="M8 80H16C18.2 80 20 78.2 20 76V40C20 37.8 18.2 36 16 36H8V80ZM87.32 51.52C87.76 50.52 88 49.44 88 48.32V44C88 39.6 84.4 36 80 36H58L61.68 17.4C61.88 16.52 61.76 15.56 61.36 14.76C60.44 12.96 59.28 11.32 57.84 9.88L56 8L30.36 33.64C28.84 35.16 28 37.2 28 39.32V70.68C28 75.8 32.2 80 37.36 80H69.8C72.6 80 75.24 78.52 76.68 76.12L87.32 51.52Z" fill="black"/>
</g>
<defs>
<clipPath id="clip0_225_2">
<rect width="96" height="96" fill="white"/>
</clipPath>
</defs>
</svg>
