<svg width="96" height="96" viewBox="0 0 96 96" fill="none" xmlns="http://www.w3.org/2000/svg">
<g clip-path="url(#clip0_225_11)">
<path d="M43.56 73.12L45.84 61.56C46.32 59.2 45.68 56.76 44.16 54.92C42.64 53.08 40.4 52 38 52H16V47.68L26.28 24H58.64C59.36 24 60 24.64 60 25.36V56.72L43.56 73.12ZM40 88L65.64 62.36C67.16 60.84 68 58.8 68 56.68V25.36C68 20.2 63.8 16 58.64 16H26.24C23.4 16 20.8 17.48 19.36 19.88L8.68 44.48C8.24 45.48 8 46.56 8 47.68V52C8 56.4 11.6 60 16 60H38L34.32 78.6C34.12 79.48 34.24 80.44 34.64 81.24C35.56 83.04 36.72 84.68 38.16 86.12L40 88ZM80 60H88V16H80C77.8 16 76 17.8 76 20V56C76 58.2 77.8 60 80 60Z" fill="black"/>
</g>
<defs>
<clipPath id="clip0_225_11">
<rect width="96" height="96" fill="white"/>
</clipPath>
</defs>
</svg>
